<svg width="85" height="40" viewBox="0 0 85 40" fill="none" xmlns="http://www.w3.org/2000/svg">
<mask id="mask0_12_180" style="mask-type:alpha" maskUnits="userSpaceOnUse" x="64" y="0" width="21" height="21">
<rect x="64.09" width="20.9091" height="20.9091" rx="5" fill="url(#paint0_linear_12_180)"/>
</mask>
<g mask="url(#mask0_12_180)">
<rect x="64.09" width="20.9091" height="20.9091" fill="url(#paint1_linear_12_180)"/>
<g style="mix-blend-mode:multiply">
<path d="M68.3058 12.0443L72.5245 20.917H64.0872L68.3058 12.0443Z" fill="#888888"/>
<path d="M74.3937 7.08618L80.8724 20.9172H67.915L74.3937 7.08618Z" fill="#888888"/>
</g>
<circle cx="80.2945" cy="4.70453" r="3.44318" stroke="#FFF171" stroke-opacity="0.75" stroke-width="2"/>
<circle cx="80.2945" cy="4.7045" r="3.65909" fill="#FFF171"/>
</g>
<path d="M4.0851 12.5514C3.80896 12.5514 3.5851 12.7753 3.5851 13.0514V18.3455C3.5851 18.6217 3.36124 18.8455 3.0851 18.8455H0.5C0.223858 18.8455 0 18.6217 0 18.3455V1.48154C0 1.20539 0.223858 0.981538 0.5 0.981538H6.78779C8.09436 0.981538 9.24159 1.22692 10.2295 1.71769C11.2253 2.20846 11.9902 2.90781 12.5239 3.81573C13.0577 4.71547 13.3246 5.742 13.3246 6.8953C13.3246 8.64571 12.739 10.028 11.5679 11.0423C10.4048 12.0484 8.79146 12.5514 6.72803 12.5514H4.0851ZM3.5851 9.06999C3.5851 9.34614 3.80896 9.56999 4.0851 9.56999H6.78779C7.73585 9.56999 8.45685 9.34097 8.9508 8.88292C9.45271 8.42487 9.70367 7.77051 9.70367 6.91984C9.70367 6.04464 9.45271 5.33711 8.9508 4.79727C8.44888 4.25742 7.75576 3.97932 6.87144 3.96296H4.0851C3.80896 3.96296 3.5851 4.18682 3.5851 4.46296V9.06999Z" fill="#5E35B1"/>
<path d="M18.9413 5.60859C18.9413 6.07946 19.5777 6.32387 19.9655 6.05673C20.6737 5.5688 21.4835 5.32484 22.3949 5.32484C25.1993 5.32484 26.6213 6.99755 26.6612 10.343V18.3455C26.6612 18.6217 26.4373 18.8455 26.1612 18.8455H23.7075C23.4314 18.8455 23.2075 18.6217 23.2075 18.3455V10.4411C23.2075 9.68042 23.0482 9.12012 22.7295 8.76022C22.4108 8.39215 21.8811 8.20811 21.1401 8.20811C20.1772 8.20811 19.4668 8.57116 19.009 9.29726C18.9629 9.37033 18.9413 9.4559 18.9413 9.54228V18.3455C18.9413 18.6217 18.7174 18.8455 18.4413 18.8455H15.9876C15.7115 18.8455 15.4876 18.6217 15.4876 18.3455V0.5C15.4876 0.223858 15.7115 0 15.9876 0H18.4413C18.7174 0 18.9413 0.223858 18.9413 0.5V5.60859Z" fill="#5E35B1"/>
<path d="M28.7286 12.0852C28.7286 10.7683 28.9756 9.59453 29.4695 8.56392C29.9635 7.5333 30.6725 6.7358 31.5967 6.17142C32.5288 5.60703 33.6083 5.32484 34.8352 5.32484C36.58 5.32484 38.002 5.87287 39.1015 6.96892C40.2089 8.06497 40.8263 9.55363 40.9538 11.4349L40.9777 12.3428C40.9777 14.3795 40.424 16.0154 39.3166 17.2505C38.2092 18.4774 36.7234 19.0909 34.8591 19.0909C32.9949 19.0909 31.505 18.4774 30.3897 17.2505C29.2823 16.0236 28.7286 14.355 28.7286 12.2447V12.0852ZM32.1822 12.3428C32.1822 13.6025 32.4133 14.5677 32.8754 15.2384C33.3374 15.9009 33.9987 16.2322 34.8591 16.2322C35.6956 16.2322 36.3489 15.905 36.819 15.2506C37.289 14.5881 37.524 13.533 37.524 12.0852C37.524 10.8501 37.289 9.89308 36.819 9.21419C36.3489 8.53529 35.6877 8.19584 34.8352 8.19584C33.9907 8.19584 33.3374 8.53529 32.8754 9.21419C32.4133 9.8849 32.1822 10.9278 32.1822 12.3428Z" fill="#5E35B1"/>
<path d="M46.7397 2.30661C47.0158 2.30661 47.2397 2.53047 47.2397 2.80661V5.07023C47.2397 5.34637 47.4635 5.57023 47.7397 5.57023H48.9505C49.2266 5.57023 49.4505 5.79409 49.4505 6.07023V7.6713C49.4505 7.94744 49.2266 8.1713 48.9505 8.1713H47.7397C47.4635 8.1713 47.2397 8.39516 47.2397 8.6713V14.7967C47.2397 15.2875 47.3313 15.6392 47.5145 15.8518C47.6977 16.0645 48.0483 16.1708 48.5661 16.1708C48.7105 16.1708 48.8485 16.1668 48.9804 16.1586C49.2942 16.1392 49.5819 16.377 49.5819 16.6914V18.4049C49.5819 18.6233 49.4405 18.8183 49.229 18.8727C48.6632 19.0182 48.0837 19.0909 47.4906 19.0909C45.0687 19.0909 43.8338 17.8354 43.786 15.3243V8.6713C43.786 8.39516 43.5621 8.1713 43.286 8.1713H42.3979C42.1217 8.1713 41.8979 7.94744 41.8979 7.6713V6.07023C41.8979 5.79409 42.1217 5.57023 42.3979 5.57023H43.286C43.5621 5.57023 43.786 5.34637 43.786 5.07023V2.80661C43.786 2.53047 44.0099 2.30661 44.286 2.30661H46.7397Z" fill="#5E35B1"/>
<path d="M50.4782 12.0852C50.4782 10.7683 50.7252 9.59453 51.2191 8.56392C51.7131 7.5333 52.4221 6.7358 53.3463 6.17142C54.2784 5.60703 55.3579 5.32484 56.5848 5.32484C58.3296 5.32484 59.7516 5.87287 60.8511 6.96892C61.9585 8.06497 62.5759 9.55363 62.7034 11.4349L62.7273 12.3428C62.7273 14.3795 62.1736 16.0154 61.0662 17.2505C59.9588 18.4774 58.473 19.0909 56.6087 19.0909C54.7445 19.0909 53.2546 18.4774 52.1393 17.2505C51.0319 16.0236 50.4782 14.355 50.4782 12.2447V12.0852ZM53.9318 12.3428C53.9318 13.6025 54.1629 14.5677 54.625 15.2384C55.087 15.9009 55.7483 16.2322 56.6087 16.2322C57.4452 16.2322 58.0985 15.905 58.5686 15.2506C59.0386 14.5881 59.2736 13.533 59.2736 12.0852C59.2736 10.8501 59.0386 9.89308 58.5686 9.21419C58.0985 8.53529 57.4373 8.19584 56.5848 8.19584C55.7403 8.19584 55.087 8.53529 54.625 9.21419C54.1629 9.8849 53.9318 10.9278 53.9318 12.3428Z" fill="#5E35B1"/>
<path d="M25.6054 36.4167C25.5377 36.212 25.3464 36.0738 25.1308 36.0738H19.5077C19.2916 36.0738 19.0999 36.2127 19.0326 36.4181L18.0517 39.4103C17.9844 39.6157 17.7928 39.7546 17.5766 39.7546H14.8055C14.458 39.7546 14.2165 39.409 14.336 39.0827L20.5094 22.2187C20.5815 22.0216 20.7691 21.8906 20.9789 21.8906H23.635C23.8445 21.8906 24.0318 22.0212 24.1042 22.2179L30.3118 39.0819C30.432 39.4083 30.1904 39.7546 29.8426 39.7546H27.0717C26.8561 39.7546 26.6648 39.6164 26.597 39.4117L25.6054 36.4167ZM20.3368 32.4372C20.2312 32.7604 20.472 33.0924 20.8121 33.0924H23.823C24.1636 33.0924 24.4046 32.7591 24.2977 32.4356L22.784 27.8514C22.6326 27.393 21.9838 27.3941 21.8339 27.853L20.3368 32.4372Z" fill="#5E35B1"/>
<path d="M35.6511 39.2546C35.6511 39.5307 35.4272 39.7546 35.1511 39.7546H32.6521C32.3759 39.7546 32.1521 39.5307 32.1521 39.2546V21.4091C32.1521 21.1329 32.3759 20.9091 32.6521 20.9091H35.1511C35.4272 20.9091 35.6511 21.1329 35.6511 21.4091V39.2546Z" fill="#5E35B1"/>
<path d="M50.2986 33.2396C50.2986 35.3663 49.8522 37.0267 48.9594 38.2209C48.0665 39.407 46.8197 40 45.2191 40C44.1734 40 43.2835 39.6987 42.5494 39.0963C42.2572 38.8565 41.755 39.0059 41.7133 39.3816C41.6896 39.5939 41.5101 39.7546 41.2965 39.7546H39.0348C38.7586 39.7546 38.5348 39.5307 38.5348 39.2546V21.4091C38.5348 21.1329 38.7586 20.9091 39.0348 20.9091H41.5217C41.7978 20.9091 42.0217 21.1329 42.0217 21.4091V26.2974C42.0217 26.764 42.6562 27.0176 43.0579 26.7801C43.6738 26.416 44.3862 26.2339 45.1949 26.2339C46.7876 26.2339 48.0343 26.831 48.9352 28.0252C49.8442 29.2112 50.2986 30.8839 50.2986 33.0433V33.2396ZM46.8117 32.982C46.8117 31.6405 46.6026 30.6631 46.1843 30.0496C45.766 29.428 45.1426 29.1172 44.3141 29.1172C43.2439 29.1172 42.4951 29.5468 42.068 30.406C42.0363 30.4697 42.0217 30.5404 42.0217 30.6115V35.6337C42.0217 35.7054 42.0366 35.7767 42.0688 35.8408C42.5037 36.7078 43.2602 37.1412 44.3383 37.1412C45.4644 37.1412 46.2044 36.5769 46.5583 35.4481C46.7272 34.9082 46.8117 34.0862 46.8117 32.982Z" fill="#5E35B1"/>
<path d="M60.3474 39.3919C60.3221 39.0385 59.8538 38.881 59.5745 39.0989C58.8044 39.6996 57.8481 40 56.7054 40C55.3058 40 54.236 39.591 53.496 38.773C52.764 37.9551 52.39 36.7568 52.3739 35.1782V26.9793C52.3739 26.7031 52.5978 26.4793 52.8739 26.4793H55.3608C55.637 26.4793 55.8608 26.7031 55.8608 26.9793V35.0555C55.8608 36.4378 56.4802 37.129 57.7189 37.129C58.8489 37.129 59.641 36.748 60.0952 35.986C60.137 35.9159 60.1562 35.8348 60.1562 35.7531V26.9793C60.1562 26.7031 60.38 26.4793 60.6562 26.4793H63.1552C63.4313 26.4793 63.6552 26.7031 63.6552 26.9793V39.2546C63.6552 39.5307 63.4313 39.7546 63.1552 39.7546H60.737C60.5321 39.7546 60.362 39.5963 60.3474 39.3919Z" fill="#5E35B1"/>
<path d="M69.1569 26.4793C69.3814 26.4793 69.5679 26.6526 69.5843 26.8765C69.6127 27.2648 70.1279 27.4361 70.4337 27.1951C71.2468 26.5543 72.241 26.2339 73.4162 26.2339C74.7493 26.2339 75.7511 26.6582 76.4216 27.5069C76.6623 27.8116 77.1626 27.8528 77.4326 27.5737C78.297 26.6805 79.4195 26.2339 80.8003 26.2339C82.216 26.2339 83.2697 26.6551 83.9615 27.4976C84.6532 28.3319 84.9991 29.5916 84.9991 31.2766V39.2546C84.9991 39.5307 84.7752 39.7546 84.4991 39.7546H82.0001C81.7239 39.7546 81.5001 39.5307 81.5001 39.2546V31.2888C81.5001 30.5363 81.3553 29.9883 81.0657 29.6447C80.7762 29.293 80.2654 29.1172 79.5334 29.1172C78.5187 29.1172 77.8069 29.5947 77.3981 30.5499C77.3732 30.6081 77.3617 30.6711 77.3617 30.7344L77.373 39.2539C77.3734 39.5303 77.1494 39.7546 76.873 39.7546H74.3867C74.1106 39.7546 73.8867 39.5307 73.8867 39.2546V31.3011C73.8867 30.5322 73.7379 29.976 73.4403 29.6325C73.1427 29.2889 72.6359 29.1172 71.9201 29.1172C70.9747 29.1172 70.279 29.4981 69.833 30.2599C69.7917 30.3303 69.7724 30.4113 69.7724 30.493V39.2546C69.7724 39.5307 69.5485 39.7546 69.2724 39.7546H66.7855C66.5093 39.7546 66.2855 39.5307 66.2855 39.2546V26.9793C66.2855 26.7031 66.5093 26.4793 66.7855 26.4793H69.1569Z" fill="#5E35B1"/>
<defs>
<linearGradient id="paint0_linear_12_180" x1="74.5445" y1="0" x2="74.5445" y2="20.9091" gradientUnits="userSpaceOnUse">
<stop stop-color="#B6E2FB"/>
<stop offset="0.703125" stop-color="#39B3F7"/>
</linearGradient>
<linearGradient id="paint1_linear_12_180" x1="74.5445" y1="0" x2="74.5445" y2="20.9091" gradientUnits="userSpaceOnUse">
<stop stop-color="#B6E2FB"/>
<stop offset="0.703125" stop-color="#39B3F7"/>
</linearGradient>
</defs>
</svg>
