<svg width="30" height="30" viewBox="0 0 30 30" fill="none" xmlns="http://www.w3.org/2000/svg">
<path d="M0 13.7198C0 13.2431 0.33646 12.8327 0.803884 12.7392L4.5 12V18L0.803885 17.2608C0.33646 17.1673 0 16.7569 0 16.2802V13.7198Z" fill="#5E35B1"/>
<path d="M30 16.2802C30 16.7569 29.6635 17.1673 29.1961 17.2608L25.5 18L25.5 12L29.1961 12.7392C29.6635 12.8327 30 13.2431 30 13.7198L30 16.2802Z" fill="#5E35B1"/>
<path d="M13.7198 30C13.2431 30 12.8327 29.6635 12.7392 29.1961L12 25.5L18 25.5L17.2608 29.1961C17.1673 29.6635 16.7569 30 16.2802 30L13.7198 30Z" fill="#5E35B1"/>
<path d="M16.2802 -7.5175e-08C16.7569 -5.43387e-08 17.1673 0.33646 17.2608 0.803884L18 4.5L12 4.5L12.7392 0.803884C12.8327 0.33646 13.2431 -2.0793e-07 13.7198 -1.87093e-07L16.2802 -7.5175e-08Z" fill="#5E35B1"/>
<path d="M5.29864 3.48818C5.63571 3.15112 6.16383 3.09882 6.56045 3.36324L9.69671 5.45408L5.45407 9.69672L3.36323 6.56046C3.09881 6.16384 3.15111 5.63571 3.48817 5.29865L5.29864 3.48818Z" fill="#5E35B1"/>
<path d="M24.7014 26.5118C24.3643 26.8489 23.8362 26.9012 23.4396 26.6368L20.3033 24.5459L24.5459 20.3033L26.6368 23.4395C26.9012 23.8362 26.8489 24.3643 26.5118 24.7013L24.7014 26.5118Z" fill="#5E35B1"/>
<path d="M3.48817 24.7014C3.15111 24.3643 3.09881 23.8362 3.36323 23.4396L5.45407 20.3033L9.69671 24.546L6.56045 26.6368C6.16383 26.9012 5.63571 26.8489 5.29864 26.5118L3.48817 24.7014Z" fill="#5E35B1"/>
<path d="M26.5118 5.29862C26.8489 5.63569 26.9012 6.16381 26.6368 6.56043L24.5459 9.69669L20.3033 5.45405L23.4396 3.36321C23.8362 3.09879 24.3643 3.15109 24.7014 3.48815L26.5118 5.29862Z" fill="#5E35B1"/>
<circle cx="15" cy="15" r="8.1" stroke="#5E35B1" stroke-width="6"/>
</svg>
