<svg width="30" height="30" viewBox="0 0 30 30" fill="none" xmlns="http://www.w3.org/2000/svg">
<g clip-path="url(#clip0_42_67)">
<path d="M15 0.369995C6.7125 0.369995 0 7.08249 0 15.37C0 22.0075 4.29375 27.6137 10.2562 29.6012C11.0062 29.7325 11.2875 29.2825 11.2875 28.8887C11.2875 28.5325 11.2688 27.3512 11.2688 26.095C7.5 26.7887 6.525 25.1762 6.225 24.3325C6.05625 23.9012 5.325 22.57 4.6875 22.2137C4.1625 21.9325 3.4125 21.2387 4.66875 21.22C5.85 21.2012 6.69375 22.3075 6.975 22.7575C8.325 25.0262 10.4813 24.3887 11.3438 23.995C11.475 23.02 11.8687 22.3637 12.3 21.9887C8.9625 21.6137 5.475 20.32 5.475 14.5825C5.475 12.9512 6.05625 11.6012 7.0125 10.5512C6.8625 10.1762 6.3375 8.63875 7.1625 6.57624C7.1625 6.57624 8.41875 6.1825 11.2875 8.11375C12.4875 7.77625 13.7625 7.60749 15.0375 7.60749C16.3125 7.60749 17.5875 7.77625 18.7875 8.11375C21.6562 6.16375 22.9125 6.57624 22.9125 6.57624C23.7375 8.63875 23.2125 10.1762 23.0625 10.5512C24.0188 11.6012 24.6 12.9325 24.6 14.5825C24.6 20.3387 21.0938 21.6137 17.7563 21.9887C18.3 22.4575 18.7688 23.3575 18.7688 24.7637C18.7688 26.77 18.75 28.3825 18.75 28.8887C18.75 29.2825 19.0312 29.7512 19.7812 29.6012C22.759 28.596 25.3466 26.6822 27.1797 24.1293C29.0128 21.5764 29.9992 18.5129 30 15.37C30 7.08249 23.2875 0.369995 15 0.369995Z" fill="white"/>
</g>
<defs>
<clipPath id="clip0_42_67">
<rect width="30" height="30" fill="white"/>
</clipPath>
</defs>
</svg>
