<svg width="30" height="30" viewBox="0 0 30 30" fill="none" xmlns="http://www.w3.org/2000/svg">
<path d="M0 2.14898C0 0.962812 0.993047 0 2.21719 0H27.7828C29.0074 0 30 0.962812 30 2.14898V27.8514C30 29.0379 29.0074 30 27.7828 30H2.21719C0.993164 30 0 29.038 0 27.8517V2.14863V2.14898Z" fill="white"/>
<path d="M9.11671 25.106V11.5999H4.62749V25.106H9.11718H9.11671ZM6.87304 9.75623C8.4382 9.75623 9.41261 8.71912 9.41261 7.42302C9.38331 6.0974 8.4382 5.08923 6.90281 5.08923C5.36636 5.08923 4.36288 6.0974 4.36288 7.4229C4.36288 8.719 5.33695 9.75611 6.84363 9.75611H6.87269L6.87304 9.75623ZM11.6016 25.106H16.0904V17.5644C16.0904 17.1613 16.1197 16.7571 16.2383 16.4692C16.5627 15.6624 17.3013 14.8272 18.5418 14.8272C20.1657 14.8272 20.8158 16.0656 20.8158 17.8814V25.106H25.3045V17.362C25.3045 13.2137 23.0902 11.2833 20.1367 11.2833C17.7152 11.2833 16.6518 12.6367 16.0609 13.5585H16.0908V11.6004H11.6018C11.6604 12.8674 11.6014 25.1065 11.6014 25.1065L11.6016 25.106Z" fill="black"/>
</svg>
