<svg width="25" height="25" viewBox="0 0 25 25" fill="none" xmlns="http://www.w3.org/2000/svg">
<path d="M9.30713 12.5884C9.30713 13.4982 9.14632 14.2959 8.82471 14.9814C8.50309 15.667 8.04183 16.196 7.44092 16.5684C6.84424 16.9408 6.15869 17.127 5.38428 17.127C4.61833 17.127 3.9349 16.9429 3.33398 16.5747C2.73307 16.2065 2.26758 15.6818 1.9375 15.0005C1.60742 14.3149 1.44027 13.5278 1.43604 12.6392V12.1821C1.43604 11.2723 1.59896 10.4725 1.9248 9.78271C2.25488 9.0887 2.71826 8.55762 3.31494 8.18945C3.91585 7.81706 4.6014 7.63086 5.37158 7.63086C6.14176 7.63086 6.8252 7.81706 7.42188 8.18945C8.02279 8.55762 8.48617 9.0887 8.81201 9.78271C9.14209 10.4725 9.30713 11.2702 9.30713 12.1758V12.5884ZM7.37744 12.1694C7.37744 11.2004 7.20394 10.464 6.85693 9.96045C6.50993 9.45687 6.01481 9.20508 5.37158 9.20508C4.73258 9.20508 4.23958 9.45475 3.89258 9.9541C3.54557 10.4492 3.36995 11.1771 3.36572 12.1377V12.5884C3.36572 13.5321 3.53923 14.2642 3.88623 14.7847C4.23324 15.3052 4.73258 15.5654 5.38428 15.5654C6.02327 15.5654 6.51416 15.3158 6.85693 14.8164C7.19971 14.3128 7.37321 13.5807 7.37744 12.6201V12.1694ZM16.2515 13.2231H12.5952V17H10.6909V7.75781H16.7085V9.30029H12.5952V11.687H16.2515V13.2231ZM23.3735 13.2231H19.7173V17H17.813V7.75781H23.8306V9.30029H19.7173V11.687H23.3735V13.2231Z" fill="black"/>
</svg>
