<svg width="25" height="25" viewBox="0 0 25 25" fill="none" xmlns="http://www.w3.org/2000/svg">
<path d="M11.8398 12.5884C11.8398 13.4982 11.679 14.2959 11.3574 14.9814C11.0358 15.667 10.5745 16.196 9.97363 16.5684C9.37695 16.9408 8.69141 17.127 7.91699 17.127C7.15104 17.127 6.46761 16.9429 5.8667 16.5747C5.26579 16.2065 4.80029 15.6818 4.47021 15.0005C4.14014 14.3149 3.97298 13.5278 3.96875 12.6392V12.1821C3.96875 11.2723 4.13167 10.4725 4.45752 9.78271C4.7876 9.0887 5.25098 8.55762 5.84766 8.18945C6.44857 7.81706 7.13411 7.63086 7.9043 7.63086C8.67448 7.63086 9.35791 7.81706 9.95459 8.18945C10.5555 8.55762 11.0189 9.0887 11.3447 9.78271C11.6748 10.4725 11.8398 11.2702 11.8398 12.1758V12.5884ZM9.91016 12.1694C9.91016 11.2004 9.73665 10.464 9.38965 9.96045C9.04264 9.45687 8.54753 9.20508 7.9043 9.20508C7.2653 9.20508 6.7723 9.45475 6.42529 9.9541C6.07829 10.4492 5.90267 11.1771 5.89844 12.1377V12.5884C5.89844 13.5321 6.07194 14.2642 6.41895 14.7847C6.76595 15.3052 7.2653 15.5654 7.91699 15.5654C8.55599 15.5654 9.04688 15.3158 9.38965 14.8164C9.73242 14.3128 9.90592 13.5807 9.91016 12.6201V12.1694ZM20.7393 17H18.835L15.1279 10.9189V17H13.2236V7.75781H15.1279L18.8413 13.8516V7.75781H20.7393V17Z" fill="black"/>
</svg>
